<svg id="svg" version="1.1" width="500" height="500" xmlns="http://www.w3.org/2000/svg" xmlns:xlink="http://www.w3.org/1999/xlink" style="display: block;"><g id="svgg"><path id="path0" d="M211.800 256.594 C 214.990 256.746,220.210 256.746,223.400 256.594 C 226.590 256.442,223.980 256.318,217.600 256.318 C 211.220 256.318,208.610 256.442,211.800 256.594 " stroke="none" fill="#ffffff" fill-rule="evenodd"></path><path id="path1" d="M142.539 26.950 C 141.955 27.183,139.890 29.765,137.949 32.687 C 133.162 39.893,125.758 50.443,124.114 52.400 C 116.460 61.509,117.688 63.761,130.400 63.933 C 140.371 64.067,140.624 64.542,140.742 83.353 C 140.775 88.658,141.146 92.920,141.600 93.200 C 142.622 93.831,142.670 114.606,141.652 115.640 C 141.220 116.079,140.661 135.579,140.329 161.829 C 140.013 186.815,139.450 207.446,139.077 207.676 C 138.137 208.257,138.226 214.918,139.196 216.611 C 139.634 217.375,140.360 223.760,140.810 230.800 C 141.260 237.840,141.994 249.180,142.441 256.000 C 142.914 263.199,143.046 279.754,142.758 295.471 L 142.260 322.541 134.482 331.871 C 125.262 342.928,124.000 344.699,124.000 346.578 C 124.000 348.991,128.191 348.429,129.808 345.800 C 130.992 343.875,133.425 340.893,138.007 335.751 C 141.053 332.333,141.985 334.183,142.225 344.126 L 142.449 353.432 138.473 355.879 C 132.886 359.317,125.192 371.496,126.892 374.212 C 127.972 375.937,131.556 376.450,132.713 375.046 C 136.611 370.314,141.469 365.232,143.434 363.833 L 145.802 362.147 147.337 364.074 C 148.182 365.133,149.215 366.720,149.634 367.600 C 150.053 368.480,150.814 369.920,151.324 370.800 C 151.835 371.680,152.490 372.916,152.780 373.547 C 153.796 375.757,155.866 376.477,157.243 375.100 C 158.924 373.419,155.916 366.596,150.200 359.124 C 147.500 355.596,146.693 333.251,149.230 332.278 C 150.718 331.707,153.321 333.930,154.992 337.198 C 157.425 341.958,160.920 345.696,162.701 345.442 C 164.907 345.128,165.291 342.414,163.434 340.257 C 162.645 339.340,160.777 336.477,159.283 333.895 C 157.739 331.228,154.731 327.705,152.317 325.738 L 148.068 322.276 148.112 286.385 C 148.138 264.459,147.842 249.464,147.350 247.847 C 143.691 235.817,146.128 232.091,152.979 239.239 C 160.070 246.638,176.367 257.600,180.274 257.600 C 180.903 257.600,182.448 258.138,183.709 258.795 C 184.969 259.452,186.750 259.992,187.667 259.995 C 188.583 259.998,189.598 260.264,189.921 260.588 C 190.989 261.656,199.469 263.285,208.271 264.114 C 226.603 265.839,247.763 262.556,260.000 256.088 C 276.085 247.587,285.659 240.503,292.464 232.070 C 296.849 226.635,303.999 213.465,304.010 210.800 C 304.014 209.920,304.553 207.433,305.209 205.273 C 306.625 200.605,306.867 149.618,305.506 142.800 C 305.067 140.600,304.402 136.460,304.029 133.600 C 303.655 130.740,302.964 127.320,302.492 126.000 C 302.020 124.680,300.881 121.276,299.961 118.436 C 294.326 101.039,269.850 69.385,256.659 62.436 C 255.041 61.584,253.061 60.525,252.259 60.082 C 250.097 58.890,245.672 57.178,241.600 55.959 C 236.705 54.494,209.026 54.449,204.000 55.898 C 196.416 58.085,180.779 65.759,175.324 69.969 C 167.399 76.086,153.830 92.112,151.760 97.800 C 149.422 104.223,146.568 95.585,145.905 80.079 C 145.259 64.953,145.317 64.800,151.734 64.800 C 158.451 64.800,160.338 62.518,159.803 55.043 C 159.582 51.949,159.041 49.189,158.601 48.909 C 158.161 48.629,157.534 47.171,157.208 45.668 C 156.269 41.344,149.467 29.358,146.951 27.596 C 145.180 26.355,144.337 26.232,142.539 26.950 M234.400 59.988 C 239.551 60.979,244.634 62.312,246.227 63.091 C 246.982 63.461,249.400 64.626,251.600 65.680 C 268.620 73.840,298.400 116.159,298.400 132.186 C 298.400 133.687,298.948 136.525,299.619 138.492 C 301.320 143.485,300.895 201.216,299.107 208.000 C 295.547 221.510,280.799 239.097,267.002 246.287 C 265.131 247.262,263.060 248.381,262.400 248.772 C 261.740 249.164,260.660 249.694,260.000 249.949 C 259.340 250.205,257.610 251.135,256.155 252.016 C 252.662 254.131,244.983 256.800,242.388 256.800 C 241.250 256.800,239.871 257.250,239.322 257.800 C 237.640 259.484,205.110 259.662,199.346 258.019 C 196.846 257.306,192.820 256.157,190.400 255.464 C 187.980 254.771,184.920 253.742,183.600 253.176 C 182.280 252.610,179.670 251.520,177.800 250.752 C 175.930 249.985,174.400 249.087,174.400 248.757 C 174.400 248.427,173.410 247.747,172.200 247.246 C 164.146 243.914,157.382 237.324,150.798 226.397 L 145.600 217.769 145.648 170.285 C 145.674 144.168,145.969 121.140,146.304 119.111 C 146.820 115.986,158.684 94.449,160.799 92.800 C 161.081 92.580,162.765 90.420,164.540 88.000 C 178.952 68.357,211.033 55.493,234.400 59.988 " stroke="none" fill="#d96764" fill-rule="evenodd"></path><path id="path2" d="M140.827 27.173 C 139.962 28.038,138.320 30.225,137.179 32.034 C 136.037 33.842,133.055 38.149,130.552 41.605 C 114.211 64.161,114.206 64.218,128.364 64.674 C 139.487 65.032,139.000 64.251,139.970 83.274 C 140.819 99.897,139.714 179.372,138.335 200.978 C 137.730 210.445,137.729 215.122,138.332 216.978 C 138.801 218.420,139.550 225.900,139.997 233.600 C 140.443 241.300,141.203 252.820,141.686 259.200 C 142.510 270.090,142.323 287.104,141.100 312.515 C 140.609 322.713,140.522 323.111,138.221 325.715 C 125.625 339.967,121.771 346.251,124.160 348.640 C 126.153 350.633,128.041 349.480,132.973 343.255 C 140.745 333.445,141.640 333.634,141.373 345.025 L 141.182 353.179 137.717 355.090 C 133.271 357.543,125.600 368.905,125.600 373.037 C 125.600 378.917,131.142 378.206,137.080 371.565 C 145.453 362.202,145.543 362.205,150.815 371.940 C 153.955 377.739,159.200 378.620,159.200 373.349 C 159.200 371.678,154.131 362.524,150.642 357.894 C 148.840 355.503,148.764 354.884,148.977 344.360 C 149.243 331.190,149.602 330.849,154.762 338.864 C 159.329 345.958,161.494 347.741,163.946 346.429 C 167.575 344.487,161.244 332.037,153.083 325.065 L 148.634 321.264 149.070 303.232 C 149.309 293.314,149.535 283.580,149.571 281.600 C 149.690 275.197,148.128 242.892,147.551 239.800 C 146.734 235.427,148.356 235.891,154.025 241.652 C 158.080 245.773,162.863 249.344,170.800 254.177 C 217.458 282.587,293.927 256.687,305.568 208.531 C 308.991 194.373,307.722 141.546,303.605 126.800 C 302.991 124.600,302.312 122.080,302.097 121.200 C 297.508 102.425,270.593 68.085,254.000 59.836 C 242.452 54.095,238.828 53.430,221.200 53.820 C 192.603 54.453,170.559 66.752,155.200 90.644 C 148.723 100.719,148.793 100.801,147.131 81.200 C 145.905 66.735,145.858 66.924,150.811 66.286 C 159.154 65.210,160.800 63.601,160.800 56.521 C 160.800 51.516,157.136 40.863,153.561 35.475 C 152.348 33.646,151.119 31.406,150.830 30.496 C 149.480 26.240,143.685 24.315,140.827 27.173 M146.951 27.596 C 149.467 29.358,156.269 41.344,157.208 45.668 C 157.534 47.171,158.161 48.629,158.601 48.909 C 159.041 49.189,159.582 51.949,159.803 55.043 C 160.338 62.518,158.451 64.800,151.734 64.800 C 145.317 64.800,145.259 64.953,145.905 80.079 C 146.568 95.585,149.422 104.223,151.760 97.800 C 153.830 92.112,167.399 76.086,175.324 69.969 C 178.949 67.171,190.961 60.841,198.800 57.598 C 204.280 55.332,208.424 54.861,222.800 54.871 C 239.112 54.882,244.589 55.851,252.259 60.082 C 253.061 60.525,255.041 61.584,256.659 62.436 C 269.850 69.385,294.326 101.039,299.961 118.436 C 300.881 121.276,302.020 124.680,302.492 126.000 C 302.964 127.320,303.655 130.740,304.029 133.600 C 304.402 136.460,305.067 140.600,305.506 142.800 C 306.867 149.618,306.625 200.605,305.209 205.273 C 304.553 207.433,304.014 209.920,304.010 210.800 C 303.999 213.465,296.849 226.635,292.464 232.070 C 285.659 240.503,276.085 247.587,260.000 256.088 C 247.763 262.556,226.603 265.839,208.271 264.114 C 199.469 263.285,190.989 261.656,189.921 260.588 C 189.598 260.264,188.583 259.998,187.667 259.995 C 186.750 259.992,184.969 259.452,183.709 258.795 C 182.448 258.138,180.903 257.600,180.274 257.600 C 176.367 257.600,160.070 246.638,152.979 239.239 C 146.128 232.091,143.691 235.817,147.350 247.847 C 147.842 249.464,148.138 264.459,148.112 286.385 L 148.068 322.276 152.317 325.738 C 154.731 327.705,157.739 331.228,159.283 333.895 C 160.777 336.477,162.645 339.340,163.434 340.257 C 165.291 342.414,164.907 345.128,162.701 345.442 C 160.920 345.696,157.425 341.958,154.992 337.198 C 153.321 333.930,150.718 331.707,149.230 332.278 C 146.693 333.251,147.500 355.596,150.200 359.124 C 155.916 366.596,158.924 373.419,157.243 375.100 C 155.866 376.477,153.796 375.757,152.780 373.547 C 152.490 372.916,151.835 371.680,151.324 370.800 C 150.814 369.920,150.053 368.480,149.634 367.600 C 149.215 366.720,148.182 365.133,147.337 364.074 L 145.802 362.147 143.434 363.833 C 141.469 365.232,136.611 370.314,132.713 375.046 C 131.556 376.450,127.972 375.937,126.892 374.212 C 125.192 371.496,132.886 359.317,138.473 355.879 L 142.449 353.432 142.225 344.126 C 141.985 334.183,141.053 332.333,138.007 335.751 C 133.425 340.893,130.992 343.875,129.808 345.800 C 128.191 348.429,124.000 348.991,124.000 346.578 C 124.000 344.699,125.262 342.928,134.482 331.871 L 142.260 322.541 142.758 295.471 C 143.046 279.754,142.914 263.199,142.441 256.000 C 141.994 249.180,141.260 237.840,140.810 230.800 C 140.360 223.760,139.634 217.375,139.196 216.611 C 138.226 214.918,138.137 208.257,139.077 207.676 C 139.450 207.446,140.013 186.815,140.329 161.829 C 140.661 135.579,141.220 116.079,141.652 115.640 C 142.670 114.606,142.622 93.831,141.600 93.200 C 141.146 92.920,140.775 88.658,140.742 83.353 C 140.624 64.542,140.371 64.067,130.400 63.933 C 117.688 63.761,116.460 61.509,124.114 52.400 C 125.758 50.443,133.162 39.893,137.949 32.687 C 142.283 26.162,143.733 25.342,146.951 27.596 M212.000 60.032 C 195.848 62.221,174.013 75.089,164.540 88.000 C 162.765 90.420,161.081 92.580,160.799 92.800 C 158.684 94.449,146.820 115.986,146.304 119.111 C 145.969 121.140,145.674 144.168,145.648 170.285 L 145.600 217.769 150.798 226.397 C 157.382 237.324,164.146 243.914,172.200 247.246 C 173.410 247.747,174.400 248.427,174.400 248.757 C 174.400 249.087,175.930 249.985,177.800 250.752 C 179.670 251.520,182.280 252.610,183.600 253.176 C 184.920 253.742,187.980 254.771,190.400 255.464 C 192.820 256.157,196.846 257.306,199.346 258.019 C 205.110 259.662,237.640 259.484,239.322 257.800 C 239.871 257.250,241.250 256.800,242.388 256.800 C 244.983 256.800,252.662 254.131,256.155 252.016 C 257.610 251.135,259.340 250.205,260.000 249.949 C 260.660 249.694,261.740 249.164,262.400 248.772 C 263.060 248.381,265.131 247.262,267.002 246.287 C 280.799 239.097,295.547 221.510,299.107 208.000 C 300.895 201.216,301.320 143.485,299.619 138.492 C 298.948 136.525,298.400 133.687,298.400 132.186 C 298.400 116.159,268.620 73.840,251.600 65.680 C 249.400 64.626,246.982 63.461,246.227 63.091 C 244.634 62.312,239.551 60.979,234.400 59.988 C 230.136 59.168,218.201 59.191,212.000 60.032 M231.600 60.804 C 239.857 62.132,244.305 63.185,245.127 64.007 C 245.563 64.443,246.431 64.800,247.055 64.800 C 252.376 64.800,272.796 84.126,282.564 98.408 C 296.709 119.088,299.365 130.193,299.783 170.393 C 300.194 209.967,298.056 217.574,282.126 233.225 C 264.846 250.202,244.225 258.400,218.801 258.400 C 205.345 258.400,203.489 258.151,191.200 254.694 C 185.424 253.069,177.958 249.860,173.200 246.956 C 172.320 246.419,169.945 244.992,167.923 243.786 C 163.083 240.898,155.144 232.563,152.485 227.576 C 151.319 225.389,149.488 222.160,148.417 220.400 L 146.469 217.200 146.515 191.600 C 146.539 177.520,146.794 155.020,147.080 141.600 L 147.600 117.200 150.080 112.400 C 162.058 89.215,174.326 76.399,193.227 67.324 C 196.292 65.853,199.377 64.353,200.082 63.991 C 206.018 60.947,222.270 59.304,231.600 60.804 " stroke="none" fill="#e18c8a" fill-rule="evenodd"></path><path id="path3" d="M142.400 24.855 C 142.400 25.265,141.722 25.600,140.893 25.600 C 140.065 25.600,139.161 26.230,138.885 27.000 C 138.170 28.996,134.972 34.074,133.004 36.337 C 132.083 37.396,130.928 39.014,130.437 39.932 C 129.946 40.849,128.986 41.600,128.305 41.600 C 127.624 41.600,127.215 42.046,127.397 42.590 C 127.578 43.135,125.268 47.175,122.263 51.569 C 114.096 63.511,114.936 65.600,127.902 65.600 C 137.722 65.600,137.938 65.795,137.974 74.692 C 137.988 78.271,138.331 81.439,138.737 81.732 C 139.765 82.474,139.826 121.496,138.800 122.229 C 138.287 122.595,137.998 135.721,137.994 158.800 C 137.991 178.600,137.896 200.200,137.783 206.800 C 137.522 222.017,137.849 234.684,138.517 235.200 C 139.211 235.737,141.130 270.650,140.582 272.748 C 140.344 273.657,140.476 274.400,140.875 274.400 C 141.274 274.400,141.600 278.000,141.600 282.400 C 141.600 286.800,141.330 290.402,141.000 290.404 C 140.670 290.405,140.272 297.515,140.116 306.204 C 139.803 323.682,140.062 322.755,133.506 329.771 C 130.449 333.042,124.666 340.476,123.610 342.492 C 123.176 343.321,122.546 344.000,122.210 344.000 C 120.815 344.000,121.720 347.993,123.378 349.155 C 125.771 350.831,127.678 350.722,129.600 348.800 C 130.480 347.920,131.560 347.200,132.000 347.200 C 132.440 347.200,132.800 346.831,132.800 346.379 C 132.800 345.319,138.553 337.600,139.343 337.600 C 139.674 337.600,139.867 341.110,139.772 345.400 C 139.669 350.095,139.282 353.131,138.800 353.026 C 135.637 352.338,123.235 370.729,124.396 374.386 C 125.608 378.207,135.176 379.086,135.204 375.379 C 135.212 374.354,144.032 365.599,145.033 365.623 C 146.049 365.647,151.200 373.594,151.200 375.137 C 151.200 375.631,152.073 376.432,153.141 376.919 C 157.785 379.034,162.326 374.848,159.713 370.861 C 158.991 369.758,158.400 368.334,158.400 367.695 C 158.400 367.056,158.130 366.413,157.800 366.267 C 153.414 364.317,149.519 353.150,149.729 343.129 C 149.904 334.807,150.382 334.054,152.866 338.195 C 158.452 347.509,162.144 349.856,165.669 346.331 C 167.647 344.353,167.325 342.234,164.390 337.909 C 163.295 336.296,162.400 334.487,162.400 333.888 C 162.400 333.290,162.040 332.800,161.600 332.800 C 161.160 332.800,160.800 332.080,160.800 331.200 C 160.800 330.320,160.496 329.600,160.124 329.600 C 159.063 329.600,150.462 321.005,150.992 320.475 C 151.253 320.214,150.998 320.000,150.426 320.000 C 149.584 320.000,149.512 316.907,150.052 303.800 C 151.017 280.371,150.798 266.535,149.139 246.096 C 148.504 238.265,148.901 237.839,152.762 242.200 C 154.222 243.850,158.159 247.080,161.509 249.377 C 164.859 251.674,167.960 253.851,168.400 254.214 C 169.123 254.810,172.976 256.646,179.600 259.552 C 180.920 260.131,184.160 261.277,186.800 262.099 C 189.440 262.921,191.780 263.775,192.000 263.997 C 192.220 264.218,193.120 264.465,194.000 264.545 C 197.855 264.896,202.400 265.852,202.400 266.313 C 202.400 266.589,209.420 266.817,218.000 266.818 C 226.580 266.820,233.600 266.546,233.600 266.210 C 233.600 265.875,234.590 265.581,235.800 265.559 C 237.010 265.536,241.240 264.626,245.200 263.536 C 249.160 262.446,253.300 261.331,254.400 261.058 C 255.500 260.785,256.580 260.337,256.800 260.063 C 257.020 259.789,260.440 257.952,264.400 255.982 C 268.360 254.012,271.780 252.184,272.000 251.920 C 272.220 251.655,273.892 250.505,275.716 249.362 C 289.078 240.995,302.852 224.290,305.198 213.608 C 305.487 212.294,306.055 211.013,306.462 210.762 C 306.868 210.511,307.171 208.617,307.135 206.553 C 307.071 202.860,307.045 202.900,305.512 209.024 C 293.544 256.838,217.197 282.428,170.800 254.177 C 162.863 249.344,158.080 245.773,154.025 241.652 C 148.356 235.891,146.734 235.427,147.551 239.800 C 148.128 242.892,149.690 275.197,149.571 281.600 C 149.535 283.580,149.309 293.314,149.070 303.232 L 148.634 321.264 153.083 325.065 C 161.244 332.037,167.575 344.487,163.946 346.429 C 161.494 347.741,159.329 345.958,154.762 338.864 C 149.602 330.849,149.243 331.190,148.977 344.360 C 148.764 354.884,148.840 355.503,150.642 357.894 C 154.131 362.524,159.200 371.678,159.200 373.349 C 159.200 378.620,153.955 377.739,150.815 371.940 C 145.543 362.205,145.453 362.202,137.080 371.565 C 131.142 378.206,125.600 378.917,125.600 373.037 C 125.600 368.905,133.271 357.543,137.717 355.090 L 141.182 353.179 141.373 345.025 C 141.640 333.634,140.745 333.445,132.973 343.255 C 128.041 349.480,126.153 350.633,124.160 348.640 C 121.771 346.251,125.625 339.967,138.221 325.715 C 140.522 323.111,140.609 322.713,141.100 312.515 C 142.323 287.104,142.510 270.090,141.686 259.200 C 141.203 252.820,140.443 241.300,139.997 233.600 C 139.550 225.900,138.801 218.420,138.332 216.978 C 137.729 215.122,137.730 210.445,138.335 200.978 C 139.714 179.372,140.819 99.897,139.970 83.274 C 139.000 64.251,139.487 65.032,128.364 64.674 C 114.217 64.218,114.218 64.206,130.436 41.744 C 132.876 38.365,136.242 33.528,137.917 30.995 C 142.336 24.312,147.287 23.925,150.430 30.016 C 151.107 31.327,152.577 33.840,153.697 35.600 C 157.221 41.135,160.800 51.678,160.800 56.521 C 160.800 63.601,159.154 65.210,150.811 66.286 C 145.858 66.924,145.905 66.735,147.131 81.200 C 148.793 100.801,148.723 100.719,155.200 90.644 C 165.488 74.640,183.587 60.945,201.699 55.459 C 208.348 53.445,234.778 53.028,241.200 54.835 C 254.232 58.503,260.273 62.618,274.540 77.543 C 289.798 93.505,299.250 108.742,302.365 122.400 C 303.343 126.688,304.688 129.634,304.739 127.600 C 304.865 122.598,297.836 106.019,291.476 96.317 C 290.004 94.072,288.800 92.034,288.800 91.790 C 288.800 91.027,280.041 81.611,269.911 71.485 C 254.089 55.670,244.085 51.804,220.800 52.507 C 203.654 53.025,202.493 53.103,202.871 53.715 C 203.046 53.998,202.201 54.475,200.994 54.776 C 198.420 55.418,195.046 56.823,188.319 60.055 C 185.634 61.345,183.024 62.400,182.519 62.400 C 182.014 62.400,181.600 62.709,181.600 63.086 C 181.600 63.464,179.350 65.156,176.600 66.847 C 170.141 70.818,160.864 80.278,154.827 89.048 C 151.884 93.324,149.853 95.602,149.530 94.991 C 148.994 93.977,147.784 78.795,147.666 71.600 L 147.600 67.600 152.041 67.122 C 164.077 65.828,165.375 54.035,155.391 36.703 C 153.966 34.229,152.800 31.799,152.800 31.303 C 152.800 30.806,152.440 30.400,152.000 30.400 C 151.560 30.400,151.200 29.871,151.200 29.224 C 151.200 28.577,150.133 27.259,148.829 26.295 C 146.346 24.459,142.400 23.575,142.400 24.855 M214.800 60.557 C 211.113 60.890,201.971 63.023,200.082 63.991 C 199.377 64.353,196.292 65.853,193.227 67.324 C 174.326 76.399,162.058 89.215,150.080 112.400 L 147.600 117.200 147.080 141.600 C 146.794 155.020,146.539 177.520,146.515 191.600 L 146.469 217.200 148.417 220.400 C 149.488 222.160,151.319 225.389,152.485 227.576 C 155.144 232.563,163.083 240.898,167.923 243.786 C 169.945 244.992,172.320 246.419,173.200 246.956 C 177.958 249.860,185.424 253.069,191.200 254.694 C 203.489 258.151,205.345 258.400,218.801 258.400 C 257.128 258.400,291.249 235.738,298.475 205.484 C 299.968 199.233,300.753 178.980,299.452 180.282 C 299.150 180.583,298.993 184.184,299.102 188.283 C 299.288 195.244,297.566 208.020,296.023 211.126 C 295.675 211.827,294.626 214.020,293.690 216.000 C 291.706 220.202,290.123 222.400,289.082 222.400 C 288.674 222.400,288.281 223.183,288.209 224.140 C 287.926 227.899,266.081 246.400,261.926 246.400 C 261.380 246.400,260.813 246.709,260.667 247.088 C 260.520 247.466,257.700 249.049,254.400 250.606 C 233.887 260.283,202.548 259.779,180.000 249.408 C 176.521 247.808,168.411 242.911,168.133 242.242 C 167.987 241.889,167.537 241.600,167.133 241.600 C 165.404 241.600,155.200 231.198,155.200 229.435 C 155.200 229.096,154.572 228.085,153.805 227.189 C 153.038 226.293,151.246 223.372,149.823 220.698 L 147.235 215.835 147.276 192.917 C 147.298 180.313,147.582 158.120,147.908 143.600 L 148.499 117.200 151.152 112.400 C 152.611 109.760,154.299 107.032,154.903 106.337 C 155.506 105.642,156.000 104.652,156.000 104.137 C 156.000 103.622,156.336 103.200,156.746 103.200 C 157.156 103.200,157.731 102.446,158.024 101.525 C 158.949 98.611,163.265 92.800,164.504 92.800 C 165.159 92.800,165.525 92.525,165.317 92.190 C 162.646 87.868,197.999 62.140,203.637 64.304 C 204.220 64.527,204.810 64.386,204.948 63.990 C 205.963 61.086,240.800 61.227,240.800 64.135 C 240.800 64.553,241.137 64.686,241.549 64.431 C 243.027 63.518,250.681 67.194,256.358 71.542 C 262.888 76.544,274.400 88.449,274.400 90.201 C 274.400 90.539,275.045 91.218,275.832 91.710 C 280.735 94.771,292.452 116.230,295.211 127.200 C 295.598 128.740,296.258 131.260,296.676 132.800 L 297.436 135.600 297.518 133.138 C 297.723 126.965,290.293 109.707,282.564 98.408 C 272.796 84.126,252.376 64.800,247.055 64.800 C 246.431 64.800,245.563 64.443,245.127 64.007 C 244.305 63.185,239.857 62.132,231.600 60.804 C 226.928 60.053,221.314 59.970,214.800 60.557 M304.849 131.667 C 304.876 132.950,305.412 136.340,306.039 139.200 L 307.178 144.400 306.721 138.800 C 306.106 131.284,305.989 130.522,305.350 129.883 C 305.047 129.581,304.822 130.383,304.849 131.667 M298.091 141.200 C 298.346 144.280,298.689 150.000,298.854 153.911 C 299.019 157.821,299.345 161.211,299.577 161.444 C 300.515 162.382,299.851 144.871,298.779 140.400 L 297.628 135.600 298.091 141.200 M307.200 173.600 C 307.200 191.044,307.497 202.400,307.952 202.400 C 308.409 202.400,308.681 191.087,308.644 173.600 C 308.611 157.760,308.272 144.800,307.892 144.800 C 307.511 144.800,307.200 157.760,307.200 173.600 " stroke="none" fill="#e9b6b4" fill-rule="evenodd"></path><path id="path4" d="M139.200 24.800 C 139.200 25.240,139.920 25.600,140.800 25.600 C 141.680 25.600,142.400 25.240,142.400 24.800 C 142.400 24.360,141.680 24.000,140.800 24.000 C 139.920 24.000,139.200 24.360,139.200 24.800 M148.600 26.067 C 150.030 27.194,151.200 28.630,151.200 29.258 C 151.200 29.886,151.560 30.400,152.000 30.400 C 153.474 30.400,152.793 27.619,150.873 25.800 C 149.829 24.810,148.305 24.004,147.487 24.009 C 146.323 24.016,146.565 24.463,148.600 26.067 M136.000 29.200 C 135.048 30.740,133.978 32.000,133.621 32.000 C 133.265 32.000,132.764 32.834,132.509 33.852 C 132.253 34.871,131.314 36.546,130.422 37.575 C 129.530 38.603,128.821 40.020,128.847 40.722 C 128.887 41.796,129.046 41.765,129.847 40.533 C 130.371 39.725,131.632 38.105,132.649 36.933 C 133.665 35.760,135.190 33.474,136.037 31.854 C 136.884 30.234,137.942 28.683,138.389 28.407 C 139.401 27.781,139.454 26.400,138.465 26.400 C 138.061 26.400,136.952 27.660,136.000 29.200 M152.800 31.703 C 152.800 31.979,153.966 34.229,155.391 36.703 C 165.372 54.029,164.077 65.826,152.051 67.122 C 148.407 67.515,147.585 67.884,147.424 69.200 C 147.316 70.080,147.432 70.350,147.681 69.800 C 147.932 69.245,149.540 68.800,151.292 68.800 C 155.480 68.800,159.317 67.116,161.554 64.297 C 163.821 61.441,163.662 48.872,161.317 45.524 C 160.593 44.490,160.000 42.824,160.000 41.822 C 160.000 40.820,159.669 40.000,159.264 40.000 C 158.859 40.000,158.290 38.920,158.000 37.600 C 157.710 36.280,157.133 35.200,156.717 35.200 C 156.301 35.200,155.618 34.300,155.200 33.200 C 154.530 31.437,152.800 30.358,152.800 31.703 M125.400 43.969 C 124.630 44.720,124.000 45.754,124.000 46.267 C 124.000 46.780,123.640 47.200,123.200 47.200 C 122.760 47.200,122.400 47.684,122.400 48.276 C 122.400 48.868,121.680 50.004,120.800 50.800 C 119.920 51.596,119.200 52.743,119.200 53.349 C 119.200 53.955,118.682 54.649,118.049 54.892 C 117.416 55.135,116.667 56.384,116.385 57.667 C 116.103 58.950,115.541 60.000,115.136 60.000 C 113.717 60.000,114.421 62.135,116.671 64.656 C 118.936 67.192,118.967 67.200,126.911 67.200 C 136.608 67.200,136.800 67.350,136.800 74.960 C 136.800 78.763,137.115 80.800,137.703 80.800 C 138.957 80.800,138.192 68.478,136.837 66.844 C 136.030 65.872,134.076 65.600,127.902 65.600 C 114.894 65.600,114.086 63.526,122.373 51.409 C 127.493 43.922,128.837 40.619,125.400 43.969 M210.000 51.200 C 209.728 51.640,208.087 52.000,206.353 52.000 C 204.619 52.000,203.200 52.349,203.200 52.775 C 203.200 53.201,202.655 53.341,201.990 53.085 C 201.324 52.830,200.334 52.980,199.790 53.418 C 199.245 53.857,197.630 54.465,196.200 54.771 C 194.770 55.077,193.600 55.580,193.600 55.889 C 193.600 56.198,191.890 56.955,189.800 57.571 C 187.710 58.187,185.556 59.134,185.014 59.674 C 184.472 60.215,183.572 60.820,183.014 61.019 C 182.456 61.218,182.248 61.648,182.552 61.975 C 182.855 62.302,185.375 61.477,188.152 60.140 C 201.826 53.558,205.445 52.707,221.183 52.373 C 229.272 52.202,234.070 51.790,234.250 51.251 C 234.626 50.121,210.698 50.071,210.000 51.200 M239.438 53.316 C 241.989 54.017,244.299 54.368,244.571 54.095 C 245.561 53.106,243.904 52.526,239.399 52.286 L 234.800 52.041 239.438 53.316 M252.677 58.011 C 260.389 61.850,273.245 73.384,283.420 85.593 C 286.432 89.208,290.049 91.297,287.331 87.853 C 282.540 81.782,262.919 61.985,260.248 60.527 C 259.451 60.092,258.620 59.526,258.400 59.268 C 257.614 58.348,254.401 56.800,253.278 56.800 C 252.648 56.800,252.011 56.432,251.860 55.981 C 251.710 55.531,250.150 54.966,248.394 54.726 C 245.630 54.349,246.207 54.791,252.677 58.011 M213.200 61.970 C 212.760 62.137,210.690 62.505,208.600 62.786 C 206.510 63.068,204.800 63.675,204.800 64.137 C 204.800 64.675,205.874 64.768,207.800 64.398 C 213.091 63.380,233.761 63.041,234.678 63.958 C 235.699 64.979,240.800 65.088,240.800 64.088 C 240.800 62.719,216.191 60.831,213.200 61.970 M179.200 62.983 C 178.540 63.234,177.820 63.656,177.600 63.920 C 176.962 64.685,172.109 68.000,171.626 68.000 C 170.907 68.000,160.801 78.178,160.786 78.918 C 160.779 79.293,159.879 80.448,158.786 81.484 C 157.694 82.520,156.800 83.678,156.800 84.056 C 156.800 84.435,155.759 85.810,154.487 87.111 C 153.215 88.412,152.004 89.954,151.797 90.538 C 150.974 92.851,150.462 90.344,149.926 81.377 C 149.478 73.889,149.127 72.000,148.183 72.000 C 147.300 72.000,147.120 72.598,147.472 74.361 C 147.732 75.660,148.184 80.610,148.478 85.361 C 149.200 97.062,149.279 97.108,154.827 89.048 C 160.864 80.278,170.141 70.818,176.600 66.847 C 182.100 63.465,183.535 61.333,179.200 62.983 M192.373 69.029 C 179.317 75.770,169.139 83.838,165.757 90.128 C 164.762 91.977,164.791 92.019,166.366 91.036 C 167.274 90.468,168.229 89.338,168.487 88.525 C 169.113 86.553,175.096 80.800,176.522 80.800 C 177.142 80.800,177.857 80.260,178.111 79.600 C 178.364 78.940,179.084 78.400,179.711 78.400 C 180.337 78.400,181.045 77.892,181.283 77.272 C 181.521 76.652,182.590 75.925,183.658 75.657 C 184.726 75.389,185.600 74.816,185.600 74.385 C 185.600 73.953,186.151 73.600,186.825 73.600 C 187.499 73.600,188.257 73.060,188.511 72.400 C 188.764 71.740,189.627 71.200,190.428 71.200 C 191.230 71.200,192.426 70.660,193.086 70.000 C 193.746 69.340,194.643 68.800,195.080 68.800 C 196.430 68.800,203.998 65.236,203.999 64.600 C 204.001 63.338,201.691 64.218,192.373 69.029 M241.600 64.746 C 241.600 65.216,242.140 65.600,242.800 65.600 C 243.460 65.600,244.000 65.892,244.000 66.249 C 244.000 66.606,245.771 67.352,247.937 67.906 C 250.102 68.461,252.070 69.429,252.311 70.058 C 252.553 70.686,253.132 71.200,253.600 71.200 C 254.067 71.200,258.938 75.718,264.425 81.241 C 276.908 93.805,278.186 93.629,266.800 80.912 C 262.484 76.091,252.338 68.067,248.400 66.359 C 243.520 64.243,241.600 63.787,241.600 64.746 M137.600 102.000 C 137.600 122.979,138.569 128.852,139.581 114.006 C 140.238 104.364,139.337 81.600,138.298 81.600 C 137.914 81.600,137.600 90.780,137.600 102.000 M275.200 92.327 C 275.200 93.055,275.740 93.857,276.400 94.111 C 277.060 94.364,277.600 95.008,277.600 95.542 C 277.600 96.075,278.590 97.635,279.800 99.008 C 281.010 100.381,283.080 103.596,284.400 106.152 C 285.720 108.708,287.021 110.980,287.292 111.200 C 287.563 111.420,288.060 112.483,288.398 113.563 C 288.735 114.642,289.504 116.018,290.106 116.620 C 290.707 117.222,291.200 118.739,291.200 119.990 C 291.200 121.242,291.562 122.387,292.005 122.535 C 292.448 122.683,293.213 125.143,293.706 128.002 C 294.198 130.861,294.898 133.575,295.261 134.034 C 295.624 134.493,296.173 140.523,296.481 147.434 C 296.915 157.168,297.285 160.000,298.121 160.000 C 299.766 160.000,298.069 133.900,296.231 130.926 C 295.958 130.484,295.458 128.836,295.121 127.262 C 292.688 115.923,275.200 85.254,275.200 92.327 M288.800 91.717 C 288.800 92.002,290.004 94.072,291.476 96.317 C 297.860 106.055,304.758 122.343,304.790 127.753 C 304.795 128.717,305.160 129.728,305.600 130.000 C 306.960 130.840,306.499 125.427,304.800 120.592 C 303.920 118.089,303.200 115.491,303.200 114.820 C 303.200 114.149,302.840 113.600,302.400 113.600 C 301.960 113.600,301.600 112.689,301.600 111.575 C 301.600 110.461,301.060 109.343,300.400 109.089 C 299.740 108.836,299.200 107.973,299.200 107.172 C 299.200 106.370,298.721 105.235,298.135 104.649 C 297.549 104.063,296.822 102.598,296.520 101.392 C 296.217 100.186,295.616 99.200,295.185 99.200 C 294.753 99.200,294.400 98.808,294.400 98.328 C 294.400 97.216,290.198 91.240,289.400 91.217 C 289.070 91.208,288.800 91.433,288.800 91.717 M160.934 96.325 C 159.626 98.264,158.316 100.604,158.024 101.525 C 157.731 102.446,157.156 103.200,156.746 103.200 C 156.336 103.200,156.000 103.622,156.000 104.137 C 156.000 104.652,155.506 105.642,154.903 106.337 C 154.299 107.032,152.610 109.760,151.149 112.400 L 148.492 117.200 147.908 142.800 C 146.954 184.584,147.015 191.200,148.350 191.200 C 149.329 191.200,149.539 185.709,149.768 154.200 L 150.037 117.200 152.154 113.600 C 153.319 111.620,155.259 108.110,156.467 105.800 C 157.674 103.490,158.963 101.600,159.331 101.600 C 159.699 101.600,160.000 101.049,160.000 100.375 C 160.000 99.701,160.508 98.955,161.128 98.717 C 161.748 98.479,162.475 97.410,162.743 96.342 C 163.011 95.274,163.584 94.400,164.015 94.400 C 164.447 94.400,164.800 94.040,164.800 93.600 C 164.800 91.846,163.192 92.979,160.934 96.325 M136.800 160.000 C 136.800 183.467,136.521 196.000,136.000 196.000 C 135.503 196.000,135.200 200.400,135.200 207.600 C 135.200 214.800,135.503 219.200,136.000 219.200 C 136.477 219.200,136.800 222.267,136.800 226.800 C 136.800 231.849,137.099 234.400,137.691 234.400 C 138.325 234.400,138.420 231.919,138.021 225.800 C 137.348 215.472,137.348 216.388,138.031 165.000 C 138.427 135.168,138.334 124.000,137.688 124.000 C 137.051 124.000,136.800 134.159,136.800 160.000 M305.972 132.600 C 306.271 133.370,306.722 136.430,306.974 139.400 C 307.558 146.289,308.800 146.425,308.800 139.600 C 308.800 136.667,308.451 134.400,308.000 134.400 C 307.560 134.400,307.200 133.680,307.200 132.800 C 307.200 131.920,306.801 131.200,306.314 131.200 C 305.797 131.200,305.655 131.783,305.972 132.600 M308.743 146.200 C 308.326 150.558,308.563 201.599,309.000 201.600 C 309.330 201.600,309.600 189.000,309.600 173.600 C 309.600 158.200,309.420 145.600,309.200 145.600 C 308.980 145.600,308.774 145.870,308.743 146.200 M298.412 171.353 C 298.420 178.523,298.678 181.608,299.200 180.800 C 300.233 179.202,300.233 161.838,299.200 161.200 C 298.682 160.880,298.404 164.455,298.412 171.353 M297.241 184.200 C 297.072 184.750,296.743 190.071,296.510 196.025 C 296.216 203.539,295.707 207.578,294.848 209.225 C 294.167 210.531,293.608 212.204,293.605 212.943 C 293.602 213.681,293.150 214.778,292.600 215.379 C 291.028 217.099,288.704 221.771,289.183 222.250 C 289.999 223.066,292.851 218.351,296.108 210.800 C 298.545 205.149,300.348 183.200,298.375 183.200 C 297.921 183.200,297.411 183.650,297.241 184.200 M147.520 204.400 C 147.521 211.000,147.645 213.594,147.795 210.163 C 147.946 206.733,147.945 201.333,147.793 198.163 C 147.642 194.994,147.519 197.800,147.520 204.400 M307.200 206.000 C 307.200 207.980,307.560 209.600,308.000 209.600 C 308.440 209.600,308.800 207.980,308.800 206.000 C 308.800 204.020,308.440 202.400,308.000 202.400 C 307.560 202.400,307.200 204.020,307.200 206.000 M305.580 212.452 C 305.151 213.581,304.800 214.786,304.800 215.132 C 304.800 222.147,286.802 242.948,274.600 250.035 C 273.170 250.865,272.000 251.852,272.000 252.226 C 272.000 253.356,275.488 251.898,277.218 250.044 C 278.107 249.091,279.457 248.072,280.218 247.781 C 280.978 247.489,281.600 246.879,281.600 246.425 C 281.600 245.971,282.162 245.600,282.848 245.600 C 285.008 245.600,299.200 230.427,299.200 228.118 C 299.200 227.707,299.740 227.164,300.400 226.911 C 301.060 226.657,301.600 225.899,301.600 225.225 C 301.600 224.551,301.960 224.000,302.400 224.000 C 302.840 224.000,303.200 223.545,303.200 222.988 C 303.200 222.432,303.895 220.680,304.743 219.097 C 306.357 216.086,307.747 210.400,306.869 210.400 C 306.589 210.400,306.009 211.323,305.580 212.452 M148.000 217.235 C 148.000 218.196,153.984 228.000,154.570 228.000 C 155.646 228.000,155.262 225.847,154.000 224.800 C 153.340 224.252,152.800 223.513,152.800 223.158 C 152.800 222.170,149.281 216.872,148.600 216.834 C 148.270 216.815,148.000 216.996,148.000 217.235 M286.117 225.162 C 284.953 226.241,284.000 227.426,284.000 227.795 C 284.000 228.624,277.370 235.200,276.535 235.200 C 276.202 235.200,274.956 236.111,273.765 237.225 C 272.574 238.339,270.816 239.451,269.858 239.697 C 268.900 239.943,267.921 240.652,267.683 241.272 C 267.445 241.892,266.699 242.400,266.025 242.400 C 265.351 242.400,264.800 242.736,264.800 243.146 C 264.800 243.556,263.990 244.137,263.000 244.436 C 262.010 244.734,259.500 246.009,257.422 247.269 C 255.343 248.528,252.733 249.787,251.622 250.066 C 250.510 250.345,249.600 250.847,249.600 251.181 C 249.600 251.516,248.108 251.989,246.285 252.234 C 244.461 252.479,242.750 253.033,242.482 253.467 C 242.214 253.901,239.026 254.515,235.397 254.831 C 229.251 255.367,227.672 256.008,229.585 257.191 C 232.001 258.684,259.655 249.695,260.667 247.088 C 260.813 246.709,261.353 246.400,261.867 246.400 C 265.590 246.399,287.231 228.629,288.249 224.736 C 288.760 222.781,288.665 222.800,286.117 225.162 M155.200 229.451 C 155.200 230.287,158.354 234.205,161.043 236.710 C 165.529 240.890,166.413 241.600,167.133 241.600 C 167.537 241.600,167.987 241.884,168.133 242.232 C 169.650 245.822,196.000 256.661,196.000 253.693 C 196.000 252.884,193.248 252.027,190.600 252.011 C 189.610 252.005,188.800 251.662,188.800 251.249 C 188.800 250.836,187.180 250.255,185.200 249.958 C 183.220 249.661,181.600 249.134,181.600 248.787 C 181.600 248.440,180.610 247.760,179.400 247.276 C 178.190 246.792,176.120 245.670,174.800 244.783 C 173.480 243.897,171.410 242.739,170.200 242.210 C 168.990 241.682,168.000 240.968,168.000 240.625 C 168.000 240.281,167.538 240.000,166.973 240.000 C 165.722 240.000,157.600 231.907,157.600 230.660 C 157.600 230.171,157.060 229.564,156.400 229.311 C 155.740 229.057,155.200 229.121,155.200 229.451 M137.600 243.600 C 137.600 248.667,137.917 252.000,138.400 252.000 C 138.894 252.000,139.200 256.133,139.200 262.800 C 139.200 270.417,139.472 273.600,140.122 273.600 C 141.036 273.600,140.871 265.923,139.473 243.400 C 138.810 232.711,137.600 232.840,137.600 243.600 M148.879 242.600 C 148.923 244.470,149.232 247.980,149.566 250.400 L 150.175 254.800 150.287 248.600 C 150.419 241.341,150.267 241.438,154.688 245.800 C 158.532 249.592,162.746 252.800,163.882 252.800 C 164.293 252.800,164.836 253.340,165.089 254.000 C 165.549 255.198,168.842 255.737,168.753 254.600 C 168.727 254.270,166.149 252.380,163.023 250.400 C 159.897 248.420,155.655 245.090,153.597 243.000 C 149.024 238.357,148.780 238.336,148.879 242.600 M263.428 256.265 C 259.813 258.099,256.843 259.861,256.828 260.180 C 256.781 261.161,261.959 259.821,262.640 258.677 C 262.992 258.084,263.960 257.600,264.793 257.600 C 265.625 257.600,266.542 257.218,266.830 256.751 C 267.119 256.284,268.220 255.572,269.278 255.170 C 270.335 254.768,271.200 254.071,271.200 253.620 C 271.200 252.415,270.636 252.607,263.428 256.265 M199.600 255.622 C 203.380 256.868,206.400 257.080,206.400 256.100 C 206.400 255.249,202.317 254.369,198.900 254.484 C 196.411 254.567,196.413 254.572,199.600 255.622 M170.105 256.385 C 170.341 257.000,171.584 257.733,172.867 258.015 C 174.150 258.297,175.200 258.818,175.200 259.175 C 175.200 259.531,176.460 260.058,178.000 260.347 C 179.540 260.636,180.800 261.216,180.800 261.636 C 180.800 262.056,181.430 262.402,182.200 262.405 C 182.970 262.408,184.631 262.948,185.891 263.605 C 188.300 264.861,192.005 265.222,191.993 264.200 C 191.989 263.870,189.739 262.936,186.993 262.123 C 182.439 260.777,178.846 259.380,174.947 257.442 C 171.210 255.585,169.669 255.249,170.105 256.385 M150.133 265.800 C 150.956 276.907,150.978 285.369,150.209 295.000 C 149.734 300.939,149.829 302.400,150.687 302.400 C 152.125 302.400,152.864 286.666,152.228 269.580 C 151.844 259.253,151.534 256.800,150.609 256.800 C 149.645 256.800,149.570 258.218,150.133 265.800 M213.400 257.392 C 216.150 257.549,220.650 257.549,223.400 257.392 C 226.150 257.236,223.900 257.108,218.400 257.108 C 212.900 257.108,210.650 257.236,213.400 257.392 M249.200 262.462 C 247.000 263.258,242.590 264.360,239.400 264.911 C 236.210 265.461,233.600 266.202,233.600 266.556 C 233.600 267.458,240.603 267.365,241.165 266.456 C 241.418 266.047,243.600 265.465,246.013 265.164 C 248.426 264.862,250.400 264.313,250.400 263.944 C 250.400 263.575,251.660 263.036,253.200 262.747 C 254.740 262.458,256.000 261.902,256.000 261.511 C 256.000 260.491,253.789 260.801,249.200 262.462 M192.800 264.707 C 192.800 265.198,193.499 265.600,194.353 265.600 C 195.207 265.600,196.128 265.960,196.400 266.400 C 197.005 267.380,202.400 267.474,202.400 266.505 C 202.400 266.123,201.050 265.602,199.400 265.347 C 197.750 265.092,195.590 264.643,194.600 264.348 C 193.489 264.018,192.800 264.155,192.800 264.707 M203.200 267.296 C 203.200 268.220,217.544 268.924,224.800 268.357 C 236.369 267.452,233.135 266.739,217.600 266.769 C 209.680 266.785,203.200 267.022,203.200 267.296 M140.000 282.400 C 140.000 287.200,140.320 290.400,140.800 290.400 C 141.280 290.400,141.600 287.200,141.600 282.400 C 141.600 277.600,141.280 274.400,140.800 274.400 C 140.320 274.400,140.000 277.600,140.000 282.400 M139.200 297.600 C 139.200 301.333,138.867 304.000,138.400 304.000 C 137.960 304.000,137.643 304.270,137.695 304.600 C 138.347 308.732,137.405 322.481,136.400 323.486 C 135.740 324.146,135.200 324.991,135.200 325.364 C 135.200 325.738,133.772 327.473,132.026 329.221 C 130.281 330.970,128.841 332.796,128.826 333.280 C 128.812 333.765,127.720 334.988,126.400 336.000 C 125.080 337.012,124.000 338.325,124.000 338.920 C 124.000 339.514,123.647 340.000,123.215 340.000 C 122.784 340.000,122.205 340.900,121.929 342.000 C 121.652 343.100,121.178 344.000,120.874 344.000 C 119.814 344.000,120.974 349.509,122.282 350.688 C 125.464 353.555,132.000 351.865,132.000 348.175 C 132.000 346.809,131.446 346.954,129.600 348.800 C 127.678 350.722,125.771 350.831,123.378 349.155 C 121.720 347.993,120.815 344.000,122.210 344.000 C 122.546 344.000,123.176 343.321,123.610 342.492 C 124.666 340.476,130.449 333.042,133.506 329.771 C 139.941 322.885,139.743 323.563,140.278 306.600 C 140.588 296.773,140.481 291.200,139.982 291.200 C 139.538 291.200,139.200 293.966,139.200 297.600 M149.896 312.000 C 149.896 316.620,150.028 318.510,150.190 316.200 C 150.351 313.890,150.351 310.110,150.190 307.800 C 150.028 305.490,149.896 307.380,149.896 312.000 M154.906 325.200 C 157.405 327.620,159.573 329.600,159.724 329.600 C 161.423 329.600,156.008 323.317,152.856 321.630 C 149.945 320.072,150.363 320.800,154.906 325.200 M160.800 332.000 C 160.800 332.440,161.160 332.800,161.600 332.800 C 162.040 332.800,162.400 333.290,162.400 333.888 C 162.400 334.487,163.295 336.296,164.390 337.909 C 167.325 342.234,167.647 344.353,165.669 346.331 C 162.144 349.856,158.452 347.509,152.866 338.195 C 150.319 333.950,149.878 334.821,149.839 344.163 L 149.806 352.400 150.395 345.774 C 151.022 338.735,151.527 337.250,152.381 339.940 C 152.671 340.853,153.244 341.600,153.654 341.600 C 154.064 341.600,154.400 342.151,154.400 342.825 C 154.400 343.499,154.905 344.244,155.521 344.480 C 156.138 344.717,156.824 345.606,157.046 346.455 C 157.268 347.305,158.024 348.000,158.725 348.000 C 159.426 348.000,160.000 348.360,160.000 348.800 C 160.000 350.163,164.782 349.679,166.423 348.150 C 169.045 345.708,169.201 342.414,166.860 338.964 C 165.727 337.295,164.800 335.585,164.800 335.164 C 164.800 334.744,164.464 334.400,164.054 334.400 C 163.644 334.400,163.079 333.680,162.800 332.800 C 162.279 331.158,160.800 330.567,160.800 332.000 M135.755 341.600 C 132.440 346.041,132.823 346.933,136.429 343.170 C 138.506 341.002,138.819 340.894,139.323 342.170 C 139.704 343.135,139.906 342.626,139.944 340.600 C 140.018 336.647,139.330 336.811,135.755 341.600 M137.600 347.200 C 137.600 348.960,137.960 350.400,138.400 350.400 C 139.893 350.400,139.209 351.889,137.461 352.444 C 135.107 353.191,133.549 354.486,130.385 358.322 C 129.513 359.380,128.800 360.730,128.800 361.322 C 128.800 361.915,128.465 362.400,128.056 362.400 C 127.647 362.400,126.503 364.020,125.514 366.000 C 124.525 367.980,123.420 369.600,123.058 369.600 C 121.844 369.600,122.380 375.294,123.720 376.634 C 126.577 379.491,132.800 381.250,132.800 379.200 C 132.800 378.760,133.332 378.400,133.982 378.400 C 134.631 378.400,135.781 377.457,136.536 376.304 C 142.157 367.726,145.822 366.547,148.400 372.485 C 151.925 380.603,155.833 381.882,161.080 376.634 C 162.740 374.975,162.818 370.731,161.200 370.111 C 160.540 369.857,160.000 369.099,160.000 368.425 C 160.000 367.751,159.640 367.200,159.200 367.200 C 158.027 367.200,158.222 368.584,159.713 370.861 C 162.326 374.848,157.785 379.034,153.141 376.919 C 152.073 376.432,151.200 375.631,151.200 375.137 C 151.200 373.594,146.049 365.647,145.033 365.623 C 144.032 365.599,135.212 374.354,135.204 375.379 C 135.176 379.086,125.608 378.207,124.396 374.386 C 123.268 370.833,136.189 351.591,139.018 352.609 C 139.338 352.724,139.708 350.834,139.840 348.409 C 140.033 344.857,139.839 344.000,138.840 344.000 C 137.927 344.000,137.600 344.843,137.600 347.200 M150.737 355.724 C 151.615 358.012,157.169 366.309,157.854 366.356 C 158.739 366.416,157.644 363.129,156.347 361.833 C 155.774 361.259,155.077 360.073,154.798 359.195 C 154.520 358.318,153.998 357.600,153.639 357.600 C 153.280 357.600,152.798 356.880,152.568 356.000 C 152.338 355.120,151.718 354.400,151.189 354.400 C 150.624 354.400,150.438 354.945,150.737 355.724 " stroke="none" fill="#fbe9e9" fill-rule="evenodd"></path></g></svg>